<svg version="1.0" xmlns="http://www.w3.org/2000/svg" width="1164.000000ptpx" height="1128.000000ptpx" viewBox="0 0 1164.000000 1128.000000" preserveAspectRatio="xMidYMid meet" transform="rotate(0) scale(1, 1)">

<g transform="translate(0.000000,1128.000000) scale(0.100000,-0.100000)" fill="#04A45E" stroke="none">
<path d="M4575 9834 c-22 -7 -50 -14 -62 -14 -12 0 -25 -4 -28 -10 -3 -5 -17&#10;-10 -31 -10 -13 0 -32 -4 -42 -9 -9 -5 -30 -15 -47 -22 -29 -13 -71 -39 -125&#10;-77 -37 -25 -118 -111 -148 -157 -15 -22 -29 -42 -32 -45 -11 -11 -65 -114&#10;-94 -182 -22 -50 -69 -83 -104 -72 -35 10 -268 10 -307 0 -28 -7 -72 -25 -153&#10;-63 -78 -37 -212 -198 -212 -255 0 -30 -32 -78 -55 -83 -86 -17 -669 -27 -904&#10;-16 -292 14 -442 3 -526 -42 -11 -6 -46 -24 -77 -40 -100 -51 -236 -191 -300&#10;-308 -24 -45 -66 -146 -87 -210 -14 -44 -16 -6445 -2 -6481 5 -13 17 -52 27&#10;-88 21 -77 96 -208 153 -267 80 -83 240 -177 363 -211 59 -16 197 -17 2143&#10;-17 1144 0 2097 4 2119 8 48 10 142 95 151 137 8 36 -24 101 -62 127 -59 41&#10;-99 45 -319 39 -328 -9 -327 -9 -383 -64 -26 -26 -56 -60 -66 -75 -46 -65&#10;-190 -115 -257 -88 -13 5 -50 17 -83 26 -33 10 -64 21 -70 26 -5 5 -15 9 -23&#10;9 -8 0 -37 14 -64 32 -41 27 -46 33 -31 39 16 7 15 8 -4 8 -13 1 -23 5 -23 9&#10;0 8 -30 23 -95 48 -60 23 -221 30 -480 22 -309 -10 -2250 -5 -2310 6 -22 4&#10;-49 11 -60 16 -11 5 -31 14 -45 19 -86 31 -207 161 -249 268 -20 50 -20 86&#10;-26 3094 -4 1674 -6 3098 -6 3164 1 150 22 228 85 311 67 88 173 164 257 183&#10;28 6 285 11 664 11 l619 1 9 -23 c5 -13 10 -113 12 -223 3 -183 5 -205 25&#10;-248 28 -60 73 -99 147 -128 l58 -23 1250 3 c762 1 1268 6 1295 12 60 13 111&#10;48 160 111 77 96 78 102 82 321 2 108 6 198 9 200 2 1 290 0 639 -3 l635 -5&#10;58 -28 c76 -38 171 -126 198 -185 12 -26 25 -55 30 -64 5 -10 9 -522 9 -1162&#10;0 -753 3 -1147 10 -1151 6 -3 10 -15 10 -25 0 -25 53 -68 95 -76 52 -9 84 3&#10;131 49 l41 42 5 105 c2 58 4 569 3 1135 l-2 1030 -27 95 c-41 139 -97 239&#10;-189 336 -79 83 -199 164 -244 164 -10 0 -23 4 -29 9 -19 19 -133 23 -733 27&#10;-535 4 -616 7 -637 21 -13 8 -24 21 -24 28 0 33 -86 180 -133 228 -51 51 -148&#10;107 -187 107 -10 0 -21 4 -24 9 -7 11 -90 21 -252 29 -132 7 -164 17 -164 49&#10;0 9 -12 43 -27 77 -87 198 -257 369 -413 415 -25 7 -54 17 -65 21 -11 5 -31&#10;11 -45 14 -14 2 -43 9 -65 15 -56 15 -192 12 -240 -5z m278 -321 c140 -41 249&#10;-167 297 -343 23 -84 64 -153 113 -188 40 -29 58 -34 134 -42 48 -5 154 -10&#10;235 -10 l146 0 44 -33 c27 -20 54 -55 73 -92 l30 -59 3 -259 c3 -234 2 -261&#10;-14 -278 -17 -19 -48 -19 -1210 -19 -1200 0 -1235 1 -1247 34 -5 13 12 540 18&#10;571 6 29 71 102 109 123 26 14 70 18 294 22 l263 5 43 46 c39 41 46 55 66 145&#10;28 125 67 208 127 271 94 98 194 136 336 127 49 -3 112 -12 140 -21z"/>
<path d="M4510 7080 c-8 -5 -25 -10 -38 -10 -12 0 -30 -4 -40 -8 -211 -101&#10;-278 -159 -394 -341 -43 -67 -78 -124 -78 -128 0 -3 -11 -21 -25 -39 -14 -18&#10;-25 -36 -25 -39 0 -4 -8 -19 -19 -33 -10 -15 -39 -67 -65 -115 -25 -49 -55&#10;-101 -65 -116 -11 -15 -32 -52 -48 -82 -16 -30 -43 -75 -61 -101 -17 -26 -32&#10;-49 -32 -53 0 -3 -16 -31 -35 -61 -19 -30 -35 -58 -35 -63 0 -5 -4 -11 -8 -13&#10;-15 -5 -62 -116 -62 -143 0 -38 48 -100 96 -124 76 -39 129 -22 187 57 20 26&#10;140 230 267 452 308 538 337 578 451 635 69 36 129 45 227 35 106 -11 172 -42&#10;240 -110 62 -64 77 -89 247 -426 73 -144 141 -275 151 -290 35 -52 46 -80 42&#10;-115 -3 -32 -5 -34 -45 -37 -23 -2 -63 4 -88 12 -28 10 -85 16 -149 17 -91 1&#10;-109 -1 -139 -20 -43 -27 -77 -81 -77 -124 0 -48 68 -111 135 -126 155 -34&#10;588 -96 677 -96 93 0 98 1 135 31 24 19 52 58 75 105 37 74 56 142 119 446 33&#10;157 32 162 -27 232 -21 26 -33 31 -68 31 -34 0 -51 -7 -84 -36 -61 -51 -88&#10;-106 -111 -218 -11 -54 -25 -104 -31 -110 -20 -20 -44 9 -86 106 -23 52 -68&#10;150 -102 219 -33 68 -95 196 -137 284 -75 156 -145 276 -189 324 -65 71 -244&#10;181 -296 181 -10 0 -22 5 -25 10 -8 13 -345 13 -365 0z"/>
<path d="M7330 5450 c-8 -5 -25 -10 -37 -10 -49 0 -155 -75 -209 -146 -21 -29&#10;-42 -53 -46 -54 -5 0 -8 -6 -8 -13 0 -7 -11 -24 -25 -39 -14 -15 -25 -31 -25&#10;-36 0 -4 -8 -17 -18 -28 -17 -17 -92 -140 -92 -149 0 -2 -61 -92 -135 -199&#10;-145 -209 -155 -233 -141 -330 5 -32 17 -56 40 -81 l33 -35 1801 0 1801 0 6&#10;-44 c4 -25 5 -66 2 -93 -3 -26 -10 -99 -15 -160 -6 -62 -13 -117 -16 -122 -9&#10;-14 -27 -248 -37 -481 -5 -113 -13 -261 -18 -330 -23 -309 -31 -397 -37 -420&#10;-6 -23 -14 -132 -34 -465 -10 -166 -25 -330 -34 -365 -4 -14 -11 -106 -17&#10;-205 -5 -99 -14 -254 -19 -345 -10 -178 -23 -310 -38 -377 -21 -95 -88 -168&#10;-192 -206 -42 -16 -149 -17 -1299 -17 -1105 0 -1260 2 -1314 16 -95 24 -161&#10;80 -211 180 -26 52 -25 43 -61 494 -8 107 -20 233 -25 280 -6 47 -17 189 -25&#10;315 -9 127 -20 264 -25 305 -6 41 -17 165 -25 275 -21 295 -53 656 -59 685 -3&#10;14 -15 140 -26 280 -31 386 -41 453 -76 491 -28 31 -74 49 -125 49 -39 0 -53&#10;-5 -77 -29 -44 -45 -55 -99 -48 -248 3 -70 10 -164 16 -208 10 -77 16 -144 39&#10;-445 6 -74 13 -146 16 -160 3 -14 10 -70 16 -125 5 -55 14 -134 20 -175 5 -41&#10;14 -160 19 -265 5 -104 11 -208 14 -230 3 -22 12 -128 21 -235 15 -192 17&#10;-216 36 -375 5 -44 13 -152 18 -240 5 -88 12 -173 15 -190 4 -16 10 -86 15&#10;-155 11 -149 36 -238 86 -299 85 -106 191 -195 278 -235 106 -48 96 -48 1467&#10;-50 1431 -1 1349 -5 1484 67 82 43 208 165 258 249 36 60 42 80 54 180 8 62&#10;19 136 24 163 9 46 42 447 55 675 4 52 13 163 21 245 8 83 19 227 24 320 6 94&#10;15 197 20 230 13 79 36 386 55 715 9 146 20 308 25 360 38 363 60 658 60 802&#10;0 116 0 118 -30 151 -32 37 -85 57 -149 57 -63 0 -112 53 -261 279 -185 283&#10;-218 328 -288 402 -79 83 -170 129 -282 143 -107 12 -2221 18 -2240 6z m1150&#10;-291 c1076 3 1070 3 1140 -47 40 -28 62 -58 170 -228 43 -66 94 -142 114 -168&#10;20 -26 36 -51 36 -55 0 -4 -13 -14 -29 -24 -26 -15 -132 -17 -1439 -17 -1271&#10;-1 -1414 1 -1442 15 -34 18 -34 17 25 90 22 28 86 123 143 211 56 89 121 179&#10;143 199 39 35 43 37 88 29 25 -4 498 -7 1051 -5z"/>
<path d="M3305 5426 c-22 -7 -51 -17 -65 -22 -14 -6 -52 -16 -85 -23 -103 -21&#10;-251 -64 -295 -85 -14 -7 -45 -19 -70 -26 -60 -19 -145 -75 -159 -106 -6 -14&#10;-11 -47 -11 -74 0 -45 3 -51 46 -89 26 -23 57 -41 69 -41 39 0 179 41 243 72&#10;35 16 66 28 68 25 12 -12 -21 -108 -54 -156 -61 -89 -71 -105 -79 -121 -4 -8&#10;-26 -45 -50 -82 -24 -36 -43 -69 -43 -72 0 -6 -160 -257 -170 -266 -3 -3 -12&#10;-18 -20 -35 -8 -16 -29 -54 -47 -83 -18 -29 -33 -57 -33 -62 0 -6 -4 -18 -9&#10;-28 -41 -79 -46 -107 -45 -242 2 -153 13 -195 87 -310 90 -143 192 -234 337&#10;-304 l65 -31 560 -3 c308 -2 587 -1 621 3 56 6 63 9 92 47 26 34 32 51 32 93&#10;0 41 -5 57 -29 85 l-29 35 -493 7 c-272 3 -525 9 -564 12 -72 7 -158 26 -171&#10;39 -4 4 -15 7 -24 7 -25 0 -106 75 -135 124 -71 120 -72 275 -4 409 19 37 207&#10;339 294 472 18 28 68 107 110 178 43 70 84 132 91 138 15 12 42 -35 63 -111 7&#10;-25 18 -58 25 -75 34 -78 39 -91 48 -111 14 -30 65 -82 99 -100 40 -20 124&#10;-20 152 0 12 9 37 26 55 39 59 41 55 68 -52 352 -157 414 -169 437 -244 483&#10;-40 24 -121 55 -133 51 -2 -1 -22 -7 -44 -13z"/>
<path d="M5995 5095 c-35 -36 -41 -57 -37 -135 3 -39 5 -44 55 -145 111 -225&#10;146 -277 206 -306 40 -20 46 -21 70 -7 14 9 46 41 70 72 l45 57 -23 72 c-37&#10;114 -146 332 -192 382 -40 43 -44 45 -100 45 -53 0 -61 -3 -94 -35z"/>
<path d="M5210 4130 c0 -5 -8 -10 -17 -10 -10 0 -130 -114 -268 -253 -137&#10;-140 -280 -280 -317 -311 -167 -143 -155 -178 162 -466 69 -63 175 -162 235&#10;-221 163 -159 204 -181 275 -144 41 21 84 113 77 164 -8 66 -83 159 -231 287&#10;-76 66 -73 85 11 72 32 -5 247 -8 478 -6 l420 3 51 28 c76 42 92 93 55 172&#10;-37 81 0 76 -532 72 -261 -2 -491 -7 -511 -12 -41 -8 -118 19 -118 41 0 7 21&#10;30 48 51 26 21 115 107 199 190 188 189 198 216 118 311 -34 39 -40 42 -86 42&#10;-27 0 -49 -4 -49 -10z"/>
<path d="M8365 3710 c-3 -5 -13 -10 -21 -10 -25 0 -125 -70 -179 -125 -72 -74&#10;-112 -126 -170 -224 -80 -136 -103 -229 -72 -291 17 -33 103 -65 151 -56 37 7&#10;51 25 144 196 47 86 139 205 180 232 34 23 66 22 118 -1 67 -31 109 -94 213&#10;-321 34 -75 53 -103 110 -157 64 -64 64 -83 -5 -140 -113 -94 -88 -195 56&#10;-222 36 -6 82 -19 102 -28 37 -16 38 -15 94 18 67 40 287 264 302 307 14 41&#10;-14 102 -62 131 -29 18 -51 23 -114 23 -42 0 -90 -5 -106 -11 -26 -10 -69 -8&#10;-119 6 -17 4 -17 6 -1 17 28 21 15 115 -31 221 -93 213 -241 380 -385 432 -42&#10;15 -196 17 -205 3z"/>
<path d="M7613 2771 c-48 -30 -81 -61 -119 -112 -41 -56 -42 -78 -9 -117 14&#10;-17 25 -38 25 -49 0 -29 -30 -77 -85 -135 -58 -62 -95 -123 -136 -223 -23 -57&#10;-36 -303 -19 -360 29 -95 84 -186 154 -252 86 -82 152 -113 265 -125 84 -10&#10;251 -6 281 7 8 3 27 25 43 49 36 59 36 110 -1 155 -38 45 -89 61 -203 61 -112&#10;0 -155 16 -212 79 -84 94 -96 163 -47 290 47 122 151 271 189 271 9 0 36 -14&#10;60 -31 50 -37 86 -36 150 6 82 55 63 125 -84 305 -95 117 -180 200 -204 200&#10;-9 0 -30 -9 -48 -19z"/>
<path d="M9335 2350 c-64 -27 -80 -128 -31 -210 35 -60 61 -116 76 -167 15&#10;-49 4 -100 -36 -163 -35 -57 -120 -120 -161 -120 -10 0 -23 -4 -28 -9 -6 -5&#10;-53 -12 -105 -15 -52 -3 -125 -8 -162 -12 -46 -4 -68 -2 -68 5 0 6 -6 11 -14&#10;11 -17 0 -29 42 -20 74 6 24 -15 75 -44 109 -35 40 -117 12 -207 -72 -27 -25&#10;-67 -60 -89 -76 -58 -45 -96 -106 -96 -154 0 -55 29 -103 125 -207 89 -97 126&#10;-124 171 -124 34 0 93 26 99 44 4 9 13 80 14 112 1 7 70 13 209 17 232 8 293&#10;19 387 72 115 65 204 156 263 270 22 43 26 67 30 164 8 208 -49 354 -167 430&#10;-49 32 -103 39 -146 21z"/>
</g>
</svg>