<svg version="1.0" xmlns="http://www.w3.org/2000/svg" width="872.000000ptpx" height="816.000000ptpx" viewBox="0 0 872.000000 816.000000" preserveAspectRatio="xMidYMid meet" transform="rotate(0) scale(1, 1)">

<g transform="translate(0.000000,816.000000) scale(0.100000,-0.100000)" fill="#04a45e" stroke="none">
<path d="M2975 7633 c-28 -7 -66 -34 -92 -63 -40 -44 -47 -113 -43 -415 6&#10;-420 2 -1411 -5 -1483 -6 -55 -12 -70 -43 -104 -21 -23 -62 -59 -92 -81 -30&#10;-22 -57 -43 -60 -47 -3 -3 -48 -38 -100 -78 -52 -40 -108 -83 -125 -95 -16&#10;-13 -75 -57 -130 -98 -55 -41 -106 -80 -113 -87 -8 -7 -30 -25 -50 -40 -21&#10;-15 -39 -30 -42 -33 -3 -4 -23 -19 -46 -35 -74 -52 -129 -95 -164 -127 -19&#10;-18 -64 -55 -100 -82 -35 -27 -82 -67 -102 -89 -72 -73 -69 -49 -66 -582 3&#10;-464 4 -480 24 -519 15 -29 36 -48 74 -68 l53 -27 2491 2 c2345 3 2493 4 2521&#10;20 17 10 45 31 63 47 l33 28 -1 484 c0 294 -5 499 -11 522 -5 20 -29 61 -52&#10;90 -41 50 -83 84 -352 287 -611 460 -678 512 -845 648 -3 2 -7 427 -10 945&#10;l-5 942 -27 42 c-15 23 -44 54 -64 70 l-37 28 -1231 1 c-677 1 -1240 0 -1251&#10;-3z m2319 -308 c9 -24 8 -1647 -1 -1656 -11 -11 -2123 -13 -2134 -2 -6 6 -15&#10;1522 -10 1654 1 15 94 16 1070 18 963 2 1069 0 1075 -14z m131 -1969 c52 -24&#10;137 -85 305 -221 41 -34 134 -106 205 -160 565 -428 592 -450 605 -491 15 -44&#10;23 -626 9 -662 -6 -14 -16 -30 -22 -34 -15 -9 -4365 -9 -4494 0 -50 4 -95 11&#10;-100 15 -13 14 -16 646 -3 689 14 48 28 61 235 221 94 72 227 176 296 232 193&#10;154 418 323 483 363 l59 37 1161 3 c991 2 1163 4 1180 17 12 7 22 14 23 14 1&#10;1 27 -10 58 -23z"/>
<path d="M2495 3047 c-67 -39 -122 -87 -172 -150 -32 -39 -67 -82 -78 -94 -11&#10;-12 -32 -36 -47 -55 -15 -18 -44 -53 -64 -78 -112 -135 -129 -200 -73 -265 37&#10;-41 77 -65 112 -65 34 0 111 71 208 192 44 53 103 123 131 155 72 82 148 201&#10;148 232 0 35 -39 97 -76 121 -32 22 -59 24 -89 7z"/>
<path d="M3574 3031 c-41 -19 -114 -94 -114 -118 0 -7 -3 -13 -7 -13 -5 0 -17&#10;-21 -27 -48 -11 -26 -22 -49 -25 -52 -3 -3 -15 -23 -26 -45 -11 -22 -22 -42&#10;-25 -45 -11 -11 -65 -115 -96 -183 -10 -23 -18 -66 -18 -104 -1 -60 1 -66 29&#10;-89 103 -83 178 -36 313 192 154 262 193 359 168 419 -16 36 -62 84 -94 96&#10;-30 12 -30 12 -78 -10z"/>
<path d="M4714 2986 c-17 -7 -45 -32 -62 -54 -26 -33 -32 -49 -32 -90 0 -58 6&#10;-71 82 -177 190 -265 223 -297 305 -299 42 -1 48 2 89 49 72 82 62 123 -83&#10;333 -101 147 -165 219 -210 238 -39 17 -50 17 -89 0z"/>
<path d="M5910 2989 c-59 -24 -128 -122 -111 -158 31 -63 50 -93 90 -141 25&#10;-30 55 -66 66 -79 11 -13 25 -29 30 -35 6 -6 41 -48 78 -93 141 -170 243 -205&#10;345 -117 37 31 42 41 42 78 0 43 -37 112 -96 180 -130 148 -281 310 -312 335&#10;-43 33 -95 45 -132 30z"/>
<path d="M2911 1899 c-17 -17 -31 -41 -31 -54 0 -13 -4 -27 -10 -30 -25 -16 1&#10;-104 42 -141 45 -42 303 -195 355 -211 69 -22 117 -8 167 47 41 46 45 74 16&#10;129 -27 54 -185 167 -349 251 -100 51 -146 53 -190 9z"/>
<path d="M4323 1916 c-55 -20 -86 -57 -118 -141 -9 -22 -17 -75 -35 -230 -6&#10;-55 -15 -114 -21 -131 -5 -17 -9 -67 -9 -111 0 -100 13 -115 100 -121 86 -6&#10;103 1 143 60 50 73 85 225 105 448 10 109 3 147 -35 185 -22 21 -91 60 -97 54&#10;0 -1 -15 -7 -33 -13z"/>
<path d="M6727 1863 c-20 -16 -44 -38 -52 -50 -17 -25 -29 -156 -40 -453 -7&#10;-172 -7 -175 16 -204 28 -35 76 -56 128 -56 53 0 82 14 108 53 19 28 22 56 33&#10;247 7 118 15 247 19 285 11 95 0 127 -56 170 -58 45 -104 47 -156 8z"/>
<path d="M1735 1844 c-33 -17 -57 -40 -74 -71 -25 -49 -7 -109 67 -216 115&#10;-167 224 -281 281 -293 14 -3 32 -7 39 -10 46 -14 135 50 147 108 10 42 -30&#10;117 -131 248 -49 63 -106 138 -127 166 -20 29 -48 59 -62 68 -31 20 -101 21&#10;-140 0z"/>
<path d="M5409 1822 c-56 -36 -79 -71 -79 -120 0 -77 25 -106 197 -230 189&#10;-138 206 -146 288 -146 115 -1 195 54 176 120 -15 54 -34 74 -136 147 -55 39&#10;-140 101 -190 138 -103 75 -175 119 -196 119 -8 0 -35 -13 -60 -28z"/>
<path d="M1224 1158 c-60 -15 -123 -109 -110 -162 8 -33 64 -90 190 -191 256&#10;-208 305 -223 409 -127 15 14 27 32 27 41 0 8 7 22 16 32 15 17 14 21 -21 64&#10;-33 40 -136 129 -264 228 -69 54 -166 114 -191 119 -14 2 -39 1 -56 -4z"/>
<path d="M5314 1130 c-26 -10 -247 -230 -349 -346 -42 -48 -77 -99 -85 -124&#10;-13 -39 -12 -45 8 -84 22 -40 93 -96 124 -96 39 0 116 61 250 198 171 174 223&#10;246 223 307 0 48 -37 104 -89 136 -34 21 -50 22 -82 9z"/>
<path d="M7240 977 c-68 -54 -218 -211 -261 -273 -26 -38 -31 -56 -32 -103 -1&#10;-96 36 -131 136 -131 l52 0 84 87 c132 138 240 272 246 307 14 72 -57 156&#10;-131 156 -31 0 -50 -9 -94 -43z"/>
<path d="M3165 960 c-38 -4 -140 -8 -226 -9 -188 -1 -212 -5 -249 -42 -55 -56&#10;-48 -158 15 -219 l36 -35 137 2 c225 4 469 30 522 56 84 41 114 126 68 194&#10;-42 60 -112 72 -303 53z"/>
</g>
</svg>