<svg version="1.0" xmlns="http://www.w3.org/2000/svg" width="1076.000000ptpx" height="984.000000ptpx" viewBox="0 0 1076.000000 984.000000" preserveAspectRatio="xMidYMid meet" transform="rotate(0) scale(1, 1)">

<g transform="translate(0.000000,984.000000) scale(0.100000,-0.100000)" fill="#04a45e" stroke="none">
<path d="M3670 8851 c-8 -6 -25 -11 -37 -11 -30 0 -60 -26 -83 -71 -18 -34&#10;-19 -84 -21 -1060 -1 -593 -5 -1031 -11 -1042 -8 -16 -30 -17 -301 -12 -161 3&#10;-316 8 -345 11 -55 6 -200 -12 -217 -27 -5 -5 -15 -9 -23 -9 -27 0 -75 -44&#10;-93 -86 -18 -41 -19 -77 -19 -716 0 -370 0 -685 0 -700 0 -55 -7 -56 -525 -45&#10;-259 6 -483 7 -498 3 -33 -8 -93 -60 -113 -97 -12 -23 -14 -110 -14 -519 0&#10;-332 4 -506 11 -538 12 -50 54 -103 104 -130 28 -16 292 -17 3647 -17 l3617 0&#10;28 21 c63 47 62 41 63 474 1 774 3 727 -20 748 -41 38 -80 41 -610 43 -288 1&#10;-523 5 -532 11 -17 8 -18 52 -18 701 -1 381 -5 711 -9 735 -10 49 -48 95 -101&#10;120 -31 15 -76 17 -410 14 -278 -2 -381 0 -397 9 l-23 12 0 1029 c0 1153 6&#10;1066 -75 1114 l-45 26 -1333 3 c-732 1 -1388 5 -1457 9 -81 5 -130 3 -140 -3z&#10;m2750 -327 c12 -30 13 -1823 2 -1840 -4 -6 -15 -14 -26 -17 -22 -9 -2555 -11&#10;-2577 -2 -12 4 -14 134 -18 934 -1 511 0 934 4 940 4 8 394 11 1306 11 l1299&#10;0 10 -26z m935 -2201 c4 -16 6 -323 5 -685 0 -447 2 -658 10 -663 5 -3 10 -15&#10;10 -27 0 -28 32 -70 80 -103 73 -50 128 -55 629 -54 391 1 456 0 465 -13 8&#10;-10 10 -121 9 -342 -1 -299 -3 -329 -19 -347 -18 -20 -42 -20 -3198 -14 -3656&#10;7 -3642 7 -3675 24 -21 12 -23 18 -17 58 3 25 6 178 6 339 l0 294 433 0 c417&#10;0 576 8 621 32 28 15 43 34 68 87 20 44 21 56 19 734 -1 378 1 693 4 698 4 5&#10;889 9 2275 9 l2268 0 7 -27z"/>
<path d="M2796 3337 c-51 -29 -118 -96 -483 -487 -119 -128 -288 -323 -291&#10;-336 -2 -8 -7 -14 -12 -14 -4 0 -10 -8 -13 -17 -4 -10 -13 -36 -21 -58 -44&#10;-115 -3 -164 344 -414 146 -105 171 -122 228 -151 81 -41 104 -45 143 -24 45&#10;23 362 331 484 469 53 61 145 163 204 227 119 133 141 166 141 221 0 58 -35&#10;114 -129 207 -133 132 -391 355 -438 379 -53 26 -106 26 -157 -2z m110 -320&#10;c16 -13 74 -67 129 -120 55 -53 103 -97 107 -97 4 0 14 -12 22 -28 18 -36 6&#10;-65 -56 -134 -26 -29 -87 -100 -136 -158 -49 -58 -139 -156 -199 -217 -100&#10;-104 -111 -113 -145 -113 -21 0 -54 10 -75 21 -57 32 -219 156 -243 186 -21&#10;27 -27 78 -9 88 5 4 65 69 132 144 269 302 410 451 426 451 9 0 30 -10 47 -23z"/>
<path d="M7416 3302 c-31 -4 -94 -41 -141 -82 -45 -41 -270 -209 -358 -269&#10;-143 -97 -227 -201 -227 -279 0 -52 24 -88 141 -217 25 -27 83 -95 128 -150&#10;134 -161 380 -414 446 -457 66 -43 73 -43 163 -3 59 27 127 77 262 195 52 44&#10;148 123 214 175 157 121 186 152 193 202 8 57 -20 103 -137 229 -56 60 -171&#10;194 -256 297 -281 340 -321 374 -428 359z m45 -350 c15 -9 73 -74 130 -143 57&#10;-70 144 -172 193 -228 83 -96 88 -104 83 -137 -3 -20 -16 -45 -29 -56 -13 -11&#10;-56 -50 -97 -86 -40 -37 -81 -71 -90 -76 -9 -5 -38 -29 -65 -53 -26 -23 -58&#10;-43 -69 -43 -25 0 -220 194 -317 315 -35 44 -93 111 -127 150 -35 38 -63 72&#10;-63 75 0 3 24 23 53 45 28 22 109 83 179 137 161 124 174 130 219 100z"/>
<path d="M5128 3110 c-56 -27 -106 -66 -215 -167 -54 -50 -123 -112 -153 -139&#10;-30 -26 -96 -89 -146 -138 -75 -75 -92 -98 -97 -130 -10 -61 2 -92 62 -161 31&#10;-35 106 -122 166 -192 145 -168 291 -320 327 -338 15 -8 42 -22 60 -32 17 -9&#10;53 -18 79 -21 63 -6 123 25 358 187 260 178 351 263 351 329 0 45 -50 120&#10;-182 268 -73 82 -158 179 -188 215 -30 35 -57 66 -61 69 -3 3 -39 48 -81 100&#10;-85 107 -97 119 -151 149 -46 26 -80 26 -129 1z m103 -367 c24 -27 61 -68 81&#10;-93 131 -159 210 -249 232 -264 20 -12 26 -25 26 -51 0 -39 -33 -85 -62 -85&#10;-10 0 -18 -4 -18 -9 0 -5 -16 -16 -35 -25 -19 -9 -37 -21 -40 -26 -3 -6 -26&#10;-19 -50 -30 -24 -11 -50 -26 -58 -34 -8 -8 -29 -24 -47 -35 -46 -27 -63 -17&#10;-180 109 -52 56 -119 127 -148 158 -76 78 -104 118 -100 139 6 33 309 293 342&#10;293 7 0 33 -21 57 -47z"/>
<path d="M4030 1674 c-51 -28 -387 -368 -459 -464 -14 -19 -46 -55 -71 -80&#10;-77 -76 -94 -107 -94 -166 1 -40 8 -61 33 -97 17 -25 41 -54 54 -64 13 -10 74&#10;-65 135 -123 232 -217 341 -259 471 -183 25 14 157 137 293 272 189 188 252&#10;257 268 293 l21 47 -22 48 c-17 36 -73 98 -218 241 -210 206 -275 261 -332&#10;280 -42 14 -47 14 -79 -4z m83 -335 c12 -6 70 -59 130 -117 75 -75 107 -114&#10;107 -130 0 -15 -22 -45 -62 -85 -35 -35 -79 -81 -99 -102 -75 -84 -175 -174&#10;-200 -180 -22 -6 -39 5 -119 79 -51 47 -96 86 -100 86 -4 0 -20 16 -35 36 -20&#10;26 -25 42 -20 61 8 33 334 363 359 363 9 0 27 -5 39 -11z"/>
<path d="M8279 1550 c-53 -37 -241 -223 -380 -376 -98 -108 -102 -114 -103&#10;-158 -1 -65 57 -138 243 -306 52 -47 126 -113 164 -148 38 -35 87 -72 108 -82&#10;87 -45 171 -14 302 108 40 37 119 108 176 157 120 103 161 159 161 219 -1 46&#10;-16 68 -185 277 -280 343 -286 349 -377 348 -45 0 -62 -6 -109 -39z m141 -295&#10;c17 -9 30 -19 30 -24 0 -5 41 -52 91 -105 87 -92 91 -98 86 -132 -4 -26 -27&#10;-58 -92 -127 -89 -94 -120 -112 -170 -98 -33 8 -233 206 -241 237 -5 21 9 40&#10;116 144 67 66 128 120 136 120 8 0 28 -7 44 -15z"/>
<path d="M6127 1556 c-44 -10 -68 -23 -96 -50 -40 -40 -81 -107 -81 -135 0 -9&#10;-4 -21 -9 -26 -9 -10 -15 -47 -27 -145 -3 -25 -9 -54 -14 -65 -5 -11 -11 -45&#10;-14 -75 -8 -73 -21 -155 -36 -210 -6 -25 -10 -72 -8 -105 5 -77 30 -115 101&#10;-150 58 -28 228 -67 395 -90 59 -9 123 -20 143 -26 66 -20 137 21 195 113 25&#10;39 110 333 125 433 5 33 19 109 31 169 l21 109 -22 42 c-22 42 -108 115 -135&#10;115 -8 0 -18 5 -21 10 -3 6 -15 10 -26 10 -10 0 -27 4 -37 9 -35 18 -164 46&#10;-282 61 -47 6 -98 13 -115 15 -16 2 -56 -2 -88 -9z m315 -277 c31 -7 71 -20&#10;88 -31 31 -19 32 -19 27 -86 -3 -37 -10 -87 -16 -112 -7 -25 -16 -65 -21 -90&#10;-5 -25 -13 -65 -18 -90 -21 -104 -47 -121 -164 -101 -244 40 -247 43 -212 156&#10;8 28 24 95 34 150 27 143 48 218 65 231 15 11 21 11 217 -27z"/>
<path d="M1705 1530 c-33 -4 -85 -8 -116 -9 -67 -1 -107 -19 -149 -68 l-32&#10;-35 6 -302 c8 -447 12 -476 77 -530 51 -43 89 -48 408 -44 325 3 337 5 398 66&#10;17 17 34 44 38 59 4 15 9 185 11 377 l5 349 -25 37 c-40 61 -87 84 -191 92&#10;-159 13 -368 17 -430 8z m331 -268 c35 -3 42 -44 47 -250 3 -145 1 -196 -9&#10;-210 -11 -15 -36 -18 -176 -22 -113 -4 -173 -2 -195 7 l-32 11 -3 204 c-4 245&#10;-3 256 26 260 22 3 306 3 342 0z"/>
</g>
</svg>