<svg version="1.0" xmlns="http://www.w3.org/2000/svg" width="1200.000000ptpx" height="1268.000000ptpx" viewBox="0 0 1200.000000 1268.000000" preserveAspectRatio="xMidYMid meet" transform="rotate(0) scale(1, 1)">

<g transform="translate(0.000000,1268.000000) scale(0.100000,-0.100000)" fill="#04a45e" stroke="none">
<path d="M5145 9566 c-17 -6 -47 -21 -68 -33 -21 -13 -40 -23 -42 -23 -6 0&#10;-187 -174 -499 -481 -171 -168 -364 -357 -429 -420 -66 -63 -134 -135 -153&#10;-160 -30 -42 -34 -54 -34 -111 0 -55 4 -69 25 -92 49 -53 114 -60 193 -20 55&#10;27 369 323 662 625 86 87 161 159 167 159 23 0 26 -80 27 -555 1 -460 2 -492&#10;20 -517 28 -42 77 -68 128 -68 39 0 52 6 89 39 l44 39 2 503 c1 277 3 528 3&#10;557 l0 53 28 -15 c15 -8 194 -182 397 -386 394 -395 433 -427 527 -437 61 -6&#10;92 12 134 78 31 50 30 92 -3 146 -28 44 -1037 1056 -1083 1086 -48 31 -102 44&#10;-135 33z"/>
<path d="M7790 9540 c-102 -38 -128 -56 -166 -113 -23 -36 -26 -52 -36 -204&#10;-7 -116 -7 -204 0 -296 10 -119 15 -139 47 -205 26 -55 35 -85 35 -125 0 -60&#10;-9 -72 -125 -171 -110 -92 -370 -360 -414 -425 -22 -32 -47 -66 -56 -74 -8 -9&#10;-15 -18 -15 -21 0 -4 -12 -25 -26 -47 -56 -90 -101 -176 -129 -249 -9 -25 -21&#10;-53 -26 -62 -5 -10 -9 -27 -9 -37 0 -11 -4 -23 -10 -26 -5 -3 -10 -17 -10 -29&#10;0 -13 -7 -40 -15 -59 -8 -20 -15 -51 -15 -70 0 -18 -4 -37 -9 -43 -5 -5 -12&#10;-67 -15 -139 -3 -71 -9 -175 -12 -229 -6 -101 6 -172 32 -188 23 -15 38 -106&#10;25 -162 -12 -56 -31 -339 -38 -563 -4 -129 -2 -145 15 -163 10 -11 29 -40 41&#10;-66 23 -45 23 -90 1 -133 -24 -47 -40 -92 -40 -116 0 -14 -4 -34 -9 -43 -5 -9&#10;-10 -168 -12 -352 -3 -202 -8 -348 -15 -368 -18 -56 -34 -61 -189 -61 -117 -1&#10;-144 2 -162 17 l-23 17 -1 580 c-2 776 -9 879 -72 1014 -50 109 -161 250 -250&#10;318 -86 66 -127 104 -127 118 0 7 9 20 21 31 12 10 28 32 36 47 21 41 34 231&#10;27 385 -6 122 -9 136 -34 176 -39 60 -85 93 -145 100 -73 10 -852 10 -903 1&#10;-54 -10 -119 -66 -138 -120 -10 -29 -14 -97 -14 -250 0 -221 6 -259 51 -332&#10;20 -32 20 -32 0 -71 -11 -21 -39 -51 -63 -66 -45 -30 -198 -183 -198 -198 0&#10;-5 -11 -24 -25 -42 -14 -18 -25 -38 -25 -44 0 -6 -3 -12 -7 -14 -14 -5 -55&#10;-102 -71 -163 -46 -176 -43 -134 -43 -817 0 -643 0 -648 -20 -667 -18 -17 -36&#10;-19 -136 -19 -97 0 -121 3 -149 20 -26 15 -33 25 -29 41 22 112 7 1280 -18&#10;1377 -53 199 -147 352 -334 538 -45 46 -83 90 -83 98 0 9 13 29 29 45 58 58&#10;71 102 77 265 6 180 -6 317 -32 369 -18 36 -45 55 -114 83 -42 17 -211 26&#10;-495 26 -523 0 -593 -16 -658 -147 l-27 -56 0 -236 c0 -230 1 -236 24 -273 13&#10;-20 35 -43 50 -51 14 -8 26 -18 26 -23 0 -22 -42 -87 -67 -103 -60 -39 -108&#10;-87 -167 -164 -53 -70 -146 -247 -146 -278 0 -11 -3 -23 -7 -27 -4 -3 -15 -37&#10;-25 -74 -16 -61 -18 -127 -18 -712 0 -355 -3 -655 -6 -668 -11 -40 -47 -49&#10;-211 -50 -84 -1 -161 -6 -172 -12 -11 -5 -37 -10 -58 -10 -21 0 -47 -7 -57&#10;-15 -11 -8 -30 -15 -43 -15 -13 0 -31 -4 -41 -9 -9 -5 -44 -21 -77 -36 -33&#10;-15 -67 -31 -75 -36 -8 -5 -22 -12 -30 -16 -8 -4 -38 -22 -67 -40 -29 -18 -57&#10;-33 -63 -33 -5 0 -10 -4 -10 -8 0 -5 -10 -14 -22 -19 -51 -24 -277 -244 -352&#10;-342 -80 -105 -95 -126 -96 -134 0 -4 -15 -31 -33 -60 -35 -56 -87 -161 -87&#10;-177 0 -6 -4 -18 -9 -28 -51 -101 -76 -212 -101 -452 -12 -118 10 -462 31&#10;-485 5 -5 9 -18 9 -30 0 -71 138 -365 238 -504 91 -129 266 -303 377 -378 172&#10;-116 386 -210 566 -249 67 -14 459 -15 4244 -15 2866 1 4188 4 4230 11 144 26&#10;396 132 530 225 300 207 523 506 639 856 48 144 60 262 53 538 -4 194 -8 237&#10;-27 301 -33 112 -98 274 -136 342 -19 33 -34 62 -34 64 0 7 -57 92 -114 169&#10;-56 75 -175 201 -240 254 -59 48 -243 167 -301 195 -33 15 -82 39 -108 52 -27&#10;13 -57 24 -67 24 -11 0 -22 5 -25 10 -3 6 -21 10 -39 10 -18 0 -41 7 -52 15&#10;-10 8 -38 15 -61 15 -23 0 -45 5 -48 10 -3 6 -34 10 -67 10 -37 0 -76 7 -97&#10;17 l-36 17 0 381 c-1 357 -2 385 -22 457 -12 42 -27 86 -32 97 -6 11 -11 33&#10;-11 49 0 32 50 133 83 169 18 21 19 27 9 75 -6 29 -16 145 -22 258 -6 113 -16&#10;237 -22 275 -22 151 -22 168 8 231 l28 59 -1 215 c-1 219 -12 307 -58 485 -50&#10;193 -177 423 -336 611 -96 114 -311 319 -396 379 -70 49 -113 97 -113 127 0 8&#10;18 23 41 33 47 21 79 57 117 129 26 50 27 56 30 255 4 230 -10 421 -32 452&#10;-19 28 -71 59 -99 59 -12 0 -40 7 -62 15 -33 12 -141 14 -640 13 -540 -1 -605&#10;-2 -645 -18z m1190 -307 c17 -28 20 -45 15 -73 -4 -19 -8 -77 -10 -129 -2 -52&#10;-8 -98 -15 -105 -18 -18 -158 -26 -592 -32 -375 -5 -411 -4 -448 12 -35 16&#10;-40 22 -46 62 -11 72 2 283 18 293 7 5 248 9 535 9 l521 0 22 -37z m-290 -680&#10;c11 -3 30 -26 42 -51 32 -65 81 -111 252 -236 178 -131 226 -174 321 -286 113&#10;-134 184 -235 235 -335 17 -33 34 -67 39 -75 5 -8 13 -26 18 -40 6 -14 18 -42&#10;27 -63 9 -21 16 -48 16 -60 0 -13 4 -27 9 -32 5 -6 11 -30 14 -55 11 -91 25&#10;-166 36 -193 12 -30 15 -145 5 -171 -3 -9 -22 -23 -41 -32 -27 -14 -39 -14&#10;-60 -5 -19 9 -341 11 -1262 11 -680 -1 -1245 2 -1255 6 -17 7 -18 16 -12 127&#10;11 191 54 353 136 517 116 231 342 484 618 694 84 63 104 84 125 128 14 29 28&#10;67 32 85 10 47 29 57 124 64 106 7 554 9 581 2z m-5235 -1317 c13 -26 15 -54&#10;12 -118 -7 -111 -14 -141 -46 -176 -58 -63 -53 -62 -319 -62 -219 0 -246 2&#10;-280 19 -75 38 -85 58 -92 184 -6 95 -6 129 -1 180 1 4 161 7 356 7 l354 0 16&#10;-34z m2280 -20 c6 -2 16 -24 24 -50 10 -35 11 -56 3 -88 -6 -23 -8 -46 -6 -50&#10;10 -16 -19 -113 -39 -130 -18 -16 -47 -18 -283 -18 l-262 0 -30 29 c-27 27&#10;-29 37 -35 124 -5 82 -3 147 8 182 2 8 100 10 306 7 167 -2 309 -5 314 -6z&#10;m3917 -608 c7 -13 14 -63 15 -113 5 -189 20 -371 33 -401 19 -44 6 -104 -23&#10;-104 -12 -1 -303 -3 -647 -5 -344 -3 -904 -7 -1245 -10 -470 -3 -630 -2 -663&#10;8 l-44 12 7 40 c20 120 25 171 26 285 0 69 4 163 7 210 l7 85 60 6 c33 3 599&#10;6 1257 7 l1197 2 13 -22z m-6312 -52 c41 -14 93 -38 115 -53 54 -36 191 -177&#10;216 -222 11 -20 27 -49 37 -66 19 -34 42 -95 42 -114 0 -7 6 -27 14 -44 26&#10;-57 29 -116 33 -721 3 -541 2 -601 -13 -617 -15 -17 -54 -18 -670 -17 -529 1&#10;-657 4 -665 15 -7 7 -17 13 -23 13 -15 0 -11 1187 5 1310 23 184 147 357 335&#10;467 109 65 193 83 364 79 116 -3 146 -7 210 -30z m2310 0 c73 -21 135 -54 213&#10;-115 78 -62 126 -119 170 -203 67 -128 66 -115 67 -837 1 -581 0 -655 -15&#10;-677 l-15 -24 -646 0 c-637 0 -646 0 -675 21 l-29 20 0 472 c1 486 10 775 30&#10;862 6 28 29 88 52 135 34 70 58 101 132 175 103 102 190 153 311 179 88 20&#10;323 15 405 -8z m3900 -893 c49 -30 74 -59 106 -123 l28 -55 6 -355 c3 -195 2&#10;-367 -2 -381 -13 -39 -48 -53 -105 -44 -26 4 -57 7 -68 6 -11 -1 -550 -4&#10;-1198 -7 -1087 -4 -1180 -3 -1203 13 l-26 16 4 366 3 366 28 57 c33 68 111&#10;142 164 156 25 7 422 10 1133 9 l1095 -2 35 -22z m265 -1263 c418 -31 547 -74&#10;807 -272 139 -105 212 -189 331 -380 9 -15 17 -32 17 -37 0 -6 12 -36 26 -68&#10;50 -111 74 -178 74 -206 0 -13 4 -27 9 -32 30 -31 30 -519 0 -550 -5 -5 -9&#10;-18 -9 -30 0 -11 -7 -33 -15 -49 -8 -15 -15 -35 -15 -42 0 -8 -4 -22 -9 -32&#10;-5 -9 -21 -44 -37 -77 -28 -61 -91 -166 -104 -175 -4 -3 -17 -20 -28 -39 -32&#10;-53 -180 -209 -242 -255 -67 -50 -188 -126 -201 -126 -5 0 -9 -4 -9 -10 0 -5&#10;-11 -12 -25 -16 -14 -3 -25 -10 -25 -15 0 -5 -8 -9 -17 -9 -10 0 -27 -7 -37&#10;-15 -11 -8 -34 -15 -51 -15 -17 0 -35 -4 -41 -9 -5 -5 -29 -11 -54 -14 -25 -3&#10;-65 -9 -90 -14 -54 -10 -8200 2 -8282 12 -32 4 -58 11 -58 16 0 5 -15 9 -33 9&#10;-18 0 -42 7 -53 15 -10 8 -27 15 -37 15 -9 0 -25 4 -35 9 -9 5 -24 12 -32 15&#10;-15 6 -43 23 -64 39 -6 4 -34 22 -62 40 -72 46 -115 81 -208 172 -130 127&#10;-220 258 -296 431 -49 113 -66 188 -80 359 -24 286 26 507 168 739 54 90 223&#10;288 299 352 191 159 312 211 593 253 121 19 257 19 3955 20 2529 1 3878 -3&#10;3970 -9z"/>
<path d="M1900 3726 c-14 -8 -45 -24 -70 -35 -87 -39 -117 -63 -195 -153 -36&#10;-41 -49 -60 -74 -114 -50 -103 -55 -125 -58 -279 -4 -163 -6 -157 64 -301 85&#10;-177 288 -321 478 -338 249 -23 502 118 610 339 44 89 62 161 70 277 11 155&#10;-38 299 -144 425 -55 66 -185 161 -222 162 -9 1 -30 8 -45 16 -40 21 -377 21&#10;-414 1z m323 -316 c84 -42 151 -133 175 -238 19 -86 17 -106 -22 -192 -21 -47&#10;-67 -88 -140 -125 -65 -33 -79 -36 -132 -33 -32 3 -75 11 -94 19 -46 19 -126&#10;93 -158 149 -25 41 -27 54 -27 155 0 97 3 114 23 147 30 49 85 95 146 125 65&#10;31 159 28 229 -7z"/>
<path d="M9640 3726 c-14 -8 -38 -20 -55 -27 -65 -29 -166 -103 -219 -161 -31&#10;-33 -56 -65 -56 -70 0 -5 -11 -24 -25 -42 -14 -18 -25 -40 -25 -50 0 -9 -4&#10;-24 -9 -34 -43 -85 -57 -279 -25 -364 85 -230 201 -360 392 -438 139 -56 336&#10;-50 467 15 91 45 151 97 235 207 97 124 112 170 118 342 3 90 0 159 -8 194&#10;-43 191 -213 365 -419 426 -70 21 -333 22 -371 2z m235 -291 c61 -10 133 -54&#10;179 -110 71 -85 76 -96 76 -184 0 -93 -26 -157 -94 -229 -63 -67 -120 -92&#10;-211 -92 -41 0 -75 4 -75 9 0 5 -14 12 -31 16 -54 12 -111 68 -146 143 -21 45&#10;-25 69 -25 141 0 75 3 95 26 140 15 29 47 72 70 96 45 44 135 86 171 80 11 -2&#10;38 -7 60 -10z"/>
<path d="M3550 3364 c-48 -26 -87 -74 -107 -133 -15 -43 -17 -127 -3 -136 6&#10;-3 10 -15 10 -26 0 -11 21 -41 48 -67 37 -38 62 -52 117 -69 39 -12 90 -24&#10;115 -28 80 -10 4319 -14 4424 -4 104 9 188 39 235 82 29 27 81 133 81 166 0&#10;81 -56 175 -128 214 l-50 27 -2348 -1 -2349 -1 -45 -24z"/>
</g>
</svg>