<svg version="1.0" xmlns="http://www.w3.org/2000/svg" width="976.000000ptpx" height="940.000000ptpx" viewBox="0 0 976.000000 940.000000" preserveAspectRatio="xMidYMid meet" transform="rotate(0) scale(1, 1)">

<g transform="translate(0.000000,940.000000) scale(0.100000,-0.100000)" fill="#04a45e" stroke="none">
<path d="M4335 8778 c-156 -17 -231 -59 -295 -163 l-25 -40 0 -381 0 -380 44&#10;-50 c67 -76 81 -111 81 -203 0 -44 -4 -83 -10 -86 -5 -3 -10 -15 -10 -26 0&#10;-10 -4 -19 -10 -19 -5 0 -10 -6 -10 -14 0 -19 -107 -118 -221 -204 -103 -77&#10;-297 -256 -307 -282 -7 -17 -41 -60 -125 -159 -103 -122 -277 -405 -277 -451&#10;0 -5 -4 -19 -10 -30 -5 -11 -14 -29 -20 -40 -5 -11 -10 -29 -10 -39 0 -11 -4&#10;-23 -10 -26 -5 -3 -10 -19 -10 -34 0 -15 -4 -31 -9 -37 -16 -16 -22 -113 -27&#10;-428 -4 -232 -2 -317 7 -340 23 -56 71 -120 163 -214 71 -73 92 -101 98 -130&#10;3 -20 6 -156 5 -302 l0 -265 -32 -30 c-17 -16 -56 -52 -86 -80 -86 -79 -126&#10;-174 -138 -325 -10 -133 5 -2718 16 -2775 24 -122 65 -190 192 -315 155 -153&#10;244 -191 462 -198 243 -7 343 22 499 147 101 81 121 82 221 4 173 -133 299&#10;-171 531 -160 193 9 296 48 421 157 37 33 77 65 88 71 24 12 43 2 134 -76 135&#10;-115 230 -148 425 -148 215 0 300 30 473 168 142 114 229 233 262 360 18 70&#10;18 105 10 1730 -4 686 -10 1116 -17 1160 -19 127 -78 214 -183 270 l-56 30 3&#10;332 3 333 25 17 c53 37 135 121 170 175 43 65 86 220 76 272 -3 17 -10 144&#10;-15 281 -8 222 -12 260 -35 336 -46 157 -119 324 -187 429 -138 214 -313 414&#10;-509 583 -141 122 -238 216 -256 249 -15 28 -46 174 -46 216 0 12 18 45 41 72&#10;l41 49 0 411 0 411 -25 48 c-31 62 -85 107 -144 121 -25 5 -100 15 -166 20&#10;-147 12 -1099 10 -1210 -2z m1244 -305 c8 -27 11 -107 9 -273 -3 -225 -4 -235&#10;-24 -245 -27 -14 -1209 -4 -1222 10 -6 6 -11 127 -13 270 l-4 260 40 5 c22 3&#10;301 6 621 8 l580 3 13 -38z m-79 -830 c3 -2 7 -74 10 -158 5 -152 5 -153 36&#10;-197 17 -23 83 -86 146 -138 168 -138 419 -381 508 -490 93 -115 151 -204 212&#10;-330 96 -195 115 -272 128 -515 6 -99 12 -191 14 -205 2 -13 -1 -49 -7 -78&#10;-18 -86 -81 -147 -187 -180 -25 -8 -447 -11 -1430 -11 -1496 -1 -1443 -3&#10;-1496 48 -13 12 -33 42 -45 67 -19 41 -22 66 -26 227 -5 167 -3 192 21 308 44&#10;214 111 359 250 545 97 131 386 428 547 565 211 178 230 210 237 410 l5 139&#10;256 2 c311 4 814 -2 821 -9z m780 -2632 c7 -21 9 -44 5 -51 -4 -6 -7 -124 -6&#10;-262 2 -212 0 -254 -14 -274 l-15 -24 -1283 0 c-1011 0 -1287 3 -1300 13 -15&#10;11 -18 45 -22 325 l-4 312 1313 0 1313 0 13 -39z m230 -910 c16 -31 14 -2775&#10;-3 -2821 -33 -91 -116 -197 -178 -227 -115 -56 -196 -68 -319 -46 -107 18&#10;-159 55 -315 224 -86 93 -145 105 -243 50 -13 -7 -72 -58 -130 -114 -100 -95&#10;-145 -126 -245 -166 -33 -13 -176 -15 -209 -2 -13 5 -41 14 -63 21 -56 18&#10;-127 73 -220 172 -81 86 -145 128 -195 128 -44 0 -89 -29 -174 -113 -45 -43&#10;-97 -91 -116 -106 -19 -14 -37 -29 -40 -32 -5 -7 -81 -42 -143 -68 -48 -19&#10;-185 -14 -247 10 -141 53 -261 200 -289 354 -14 73 -15 2601 -1 2659 18 78 25&#10;80 253 86 111 3 801 7 1534 8 1308 2 1332 2 1343 -17z"/>
<path d="M7905 7861 c-27 -4 -59 -11 -70 -15 -42 -16 -150 -71 -153 -78 -2 -5&#10;-10 -8 -18 -8 -19 0 -189 -164 -208 -199 -7 -14 -27 -52 -45 -85 -17 -32 -31&#10;-68 -31 -80 0 -12 -5 -27 -11 -33 -13 -13 -7 -303 8 -355 47 -164 206 -339&#10;378 -418 78 -36 142 -50 250 -56 87 -5 113 -2 200 20 156 40 215 74 325 185&#10;154 155 200 263 200 465 -1 138 -17 201 -84 321 -39 70 -211 255 -236 255 -7&#10;0 -24 8 -38 18 -69 47 -128 61 -275 66 -78 3 -164 1 -192 -3z m293 -322 c135&#10;-66 232 -211 232 -348 0 -39 -4 -73 -10 -76 -5 -3 -10 -15 -10 -26 0 -10 -4&#10;-19 -10 -19 -5 0 -10 -7 -10 -15 0 -18 -7 -27 -79 -106 -56 -61 -115 -99 -155&#10;-99 -13 0 -37 -5 -54 -11 -44 -15 -163 5 -226 39 -69 36 -148 118 -182 188&#10;-39 79 -39 184 -1 267 46 102 173 213 271 238 60 16 167 1 234 -32z"/>
<path d="M1777 6984 c-3 -3 -39 -10 -79 -15 -124 -15 -262 -97 -334 -197 -22&#10;-30 -49 -65 -61 -80 -12 -14 -31 -46 -43 -71 -12 -25 -26 -53 -30 -61 -37 -75&#10;-38 -264 -2 -364 30 -81 114 -207 179 -266 115 -105 230 -151 377 -151 178 1&#10;301 48 422 163 117 111 175 221 193 361 30 247 -127 528 -354 632 -81 37 -249&#10;68 -268 49z m170 -305 c87 -41 149 -116 182 -220 13 -42 15 -162 2 -187 -5 -9&#10;-15 -30 -22 -46 -33 -71 -116 -133 -229 -171 -62 -20 -101 -19 -178 8 -51 17&#10;-79 34 -122 77 -81 80 -95 114 -95 235 0 118 11 147 87 230 48 52 99 87 158&#10;106 46 15 150 0 217 -32z"/>
<path d="M7900 3938 c-69 -12 -128 -46 -204 -118 -72 -69 -128 -145 -164 -222&#10;-19 -41 -22 -66 -22 -165 0 -116 0 -117 40 -199 90 -185 266 -306 445 -305&#10;158 1 282 56 389 173 115 125 146 201 146 353 0 198 -162 407 -362 469 -63 19&#10;-198 27 -268 14z m206 -279 c147 -69 184 -264 73 -385 -11 -12 -41 -32 -66&#10;-45 -55 -28 -143 -31 -195 -6 -76 36 -147 143 -148 222 0 85 93 211 174 234&#10;41 12 111 4 162 -20z"/>
</g>
</svg>